<?xml version="1.0" encoding="utf-8"?>
<!-- Generator: Adobe Illustrator 24.0.0, SVG Export Plug-In . SVG Version: 6.00 Build 0)  -->
<svg version="1.1" id="Layer_1" xmlns="http://www.w3.org/2000/svg" xmlns:xlink="http://www.w3.org/1999/xlink" x="0px" y="0px"
	 viewBox="0 0 225 190" style="enable-background:new 0 0 225 190;" xml:space="preserve">
<style type="text/css">
	.st0{fill:#003A42;}
	.st1{fill:#FFFFFF;}
	.st2{fill:#8DC540;}
	.st3{fill:none;stroke:#FFFFFF;stroke-miterlimit:10;}
	.st4{font-family:'HelveticaNeueLTGEO-75Bold';}
	.st5{font-size:16.7198px;}
	.st6{font-family:'HelveticaNeueLTGEO-45Lights';}
	.st7{font-size:14.3313px;}
</style>
<rect x="0.34" y="0" class="st0" width="225" height="190"/>
<g>
	<path class="st1" d="M32.22,139.04c-0.56-0.83-0.84-1.81-0.84-2.96c0-1.41,0.5-2.61,1.51-3.6c1-1,2.33-1.61,3.98-1.83
		c0.71-0.1,1.2-0.32,1.46-0.66s0.39-0.76,0.39-1.26c0-0.44-0.13-0.78-0.38-1.02c-0.25-0.24-0.57-0.36-0.96-0.36
		c-0.39,0-0.7,0.11-0.92,0.34c-0.23,0.23-0.34,0.5-0.34,0.83c0,0.19,0.03,0.4,0.1,0.63l-3.69,0.75c-0.16-0.4-0.24-0.86-0.24-1.36
		c0-1.2,0.49-2.14,1.46-2.84c0.97-0.7,2.2-1.04,3.69-1.04c0.99,0,1.87,0.17,2.63,0.5c0.77,0.33,1.37,0.8,1.8,1.4
		c0.43,0.6,0.64,1.29,0.64,2.09c0,0.66-0.14,1.24-0.41,1.74c-0.27,0.49-0.75,0.89-1.43,1.18v0.02c1.04,0.41,1.81,1.01,2.33,1.82
		c0.52,0.81,0.78,1.72,0.78,2.72c0,1.2-0.3,2.21-0.9,3.02c-0.6,0.82-1.37,1.42-2.32,1.82s-1.95,0.59-3,0.59
		c-1.12,0-2.14-0.21-3.08-0.63C33.53,140.49,32.78,139.86,32.22,139.04z M39.9,136.1c0-0.81-0.21-1.48-0.62-2
		c-0.41-0.53-0.98-0.79-1.71-0.79c-0.74,0-1.32,0.26-1.74,0.79c-0.41,0.53-0.62,1.19-0.62,2c0,0.86,0.22,1.53,0.67,2
		c0.45,0.48,1,0.72,1.66,0.72c0.68,0,1.24-0.24,1.69-0.72C39.68,137.63,39.9,136.96,39.9,136.1z"/>
	<path class="st1" d="M46.13,139.16c-0.49-0.76-0.73-1.65-0.73-2.68c0-0.66,0.06-1.22,0.17-1.68c0.12-0.46,0.29-0.91,0.52-1.34
		l3.17,0.69c-0.3,0.76-0.45,1.54-0.45,2.33s0.21,1.41,0.62,1.86c0.41,0.45,0.91,0.67,1.5,0.67c0.59,0,1.09-0.21,1.49-0.64
		c0.4-0.42,0.6-1.04,0.6-1.84c0-0.82-0.16-1.53-0.47-2.13s-0.79-1.28-1.42-2.06c-0.46-0.58-0.83-1.07-1.1-1.48
		c-0.27-0.41-0.5-0.89-0.69-1.45s-0.28-1.17-0.28-1.84c0-0.17,0.01-0.45,0.04-0.82h3.37v0.32c0,0.68,0.14,1.27,0.41,1.79
		c0.27,0.52,0.7,1.15,1.27,1.9c0.49,0.62,0.88,1.17,1.19,1.64s0.56,1.05,0.78,1.73s0.32,1.45,0.32,2.31c0,1.04-0.24,1.94-0.73,2.71
		c-0.49,0.77-1.15,1.36-2,1.76c-0.84,0.4-1.77,0.6-2.79,0.6c-1.02,0-1.95-0.2-2.78-0.6C47.28,140.5,46.62,139.92,46.13,139.16z"/>
	<path class="st1" d="M73.07,133.78c0.4,0.73,0.59,1.57,0.59,2.54c0,1.71-0.43,3.37-1.29,4.98H69.2v-0.04
		c0.39-0.78,0.67-1.52,0.84-2.22c0.17-0.71,0.26-1.52,0.26-2.44c0-0.88-0.15-1.54-0.45-1.97c-0.3-0.44-0.69-0.66-1.17-0.66
		c-0.4,0-0.73,0.16-0.98,0.47c-0.25,0.32-0.37,0.83-0.36,1.55l0.06,3.11h-3.06l0.06-3.13c0.01-1.34-0.4-2.01-1.25-2.01
		c-0.47,0-0.87,0.22-1.19,0.67s-0.47,1.1-0.47,1.96c0,0.86,0.09,1.65,0.27,2.35s0.46,1.47,0.85,2.31v0.04h-3.17
		c-0.36-0.69-0.67-1.58-0.93-2.65c-0.26-1.08-0.39-2.24-0.39-3.47c0-2.55,0.68-4.56,2.05-6.04c1.37-1.48,3.38-2.27,6.04-2.37
		l1.19-0.04c1.14-0.03,2.06-0.09,2.76-0.17l-0.17,2.91c-0.42,0.09-0.8,0.14-1.15,0.16c-0.35,0.02-0.79,0.03-1.31,0.03
		c-0.37,0-0.66,0.01-0.86,0.02c-0.99,0.04-1.85,0.13-2.58,0.27c-0.73,0.14-1.38,0.4-1.97,0.8s-1.01,0.97-1.25,1.72h0.11
		c0.63-0.62,1.42-0.93,2.35-0.93c0.53,0,1.03,0.14,1.5,0.43c0.47,0.29,0.8,0.68,1,1.19h0.11c0.23-0.49,0.64-0.88,1.24-1.18
		c0.6-0.29,1.23-0.44,1.91-0.44c0.88,0,1.66,0.19,2.35,0.58S72.67,133.05,73.07,133.78z"/>
	<path class="st1" d="M82.23,139.55h-2.96c-0.89,0-1.63,0.09-2.2,0.26v-2.31l1.58-0.13v-0.06c-1.09-0.59-1.96-1.32-2.59-2.2
		c-0.63-0.88-0.95-2.08-0.95-3.6c0-0.92,0.21-1.76,0.62-2.52c0.41-0.76,0.97-1.37,1.68-1.81c0.71-0.45,1.5-0.67,2.36-0.67
		c0.79,0,1.47,0.14,2.04,0.41c0.57,0.27,1.01,0.67,1.33,1.19h0.04c0.33-0.5,0.84-0.9,1.52-1.18c0.68-0.28,1.43-0.42,2.23-0.42
		c1.01,0,1.9,0.2,2.69,0.59c0.78,0.4,1.4,0.96,1.84,1.69c0.45,0.73,0.67,1.6,0.67,2.59c0,0.95-0.24,1.78-0.71,2.5
		c-0.47,0.72-1.12,1.28-1.94,1.67s-1.73,0.59-2.74,0.59c-0.95,0-1.84-0.18-2.66-0.54s-1.49-0.89-2-1.59
		c-0.5-0.7-0.76-1.54-0.76-2.51c0-0.14,0.01-0.34,0.04-0.6c0.03-0.26,0.04-0.46,0.04-0.6c0-0.4-0.11-0.73-0.32-0.98
		s-0.52-0.38-0.91-0.38c-0.5,0-0.91,0.23-1.22,0.7c-0.31,0.47-0.46,1.16-0.46,2.08c0,1.37,0.42,2.54,1.27,3.51
		c0.85,0.97,2.11,1.58,3.78,1.84c1.75,0.27,3.1,0.73,4.02,1.36c0.93,0.63,1.39,1.59,1.39,2.87H85.7c-0.1-0.59-0.46-1.03-1.09-1.32
		C83.98,139.69,83.19,139.55,82.23,139.55z M88.7,131.28c0-0.63-0.16-1.19-0.49-1.67c-0.32-0.48-0.82-0.72-1.5-0.72
		c-0.66,0-1.15,0.24-1.48,0.71s-0.49,1.04-0.49,1.68c0,0.68,0.16,1.26,0.49,1.74s0.82,0.72,1.5,0.72c0.66,0,1.15-0.24,1.48-0.72
		S88.7,131.96,88.7,131.28z"/>
	<path class="st1" d="M94.25,139.3c-0.47-0.68-0.7-1.46-0.7-2.32c0-0.7,0.18-1.39,0.54-2.05l3.13,0.47
		c-0.17,0.45-0.26,0.91-0.26,1.4c0,0.65,0.16,1.18,0.49,1.61c0.32,0.42,0.8,0.64,1.44,0.64c1.31,0,1.96-0.79,1.96-2.37v-5.8
		c0-0.65-0.17-1.13-0.52-1.45s-0.78-0.47-1.29-0.47c-0.5,0-0.91,0.16-1.22,0.49c-0.31,0.32-0.46,0.76-0.46,1.31
		c0,0.33,0.04,0.63,0.11,0.91l-3.28,0.52c-0.19-0.5-0.28-1.03-0.28-1.57c0-0.81,0.23-1.51,0.68-2.13c0.45-0.61,1.07-1.08,1.84-1.41
		c0.78-0.33,1.64-0.5,2.59-0.5c0.96,0,1.84,0.19,2.64,0.56s1.43,0.89,1.89,1.55c0.46,0.66,0.69,1.4,0.69,2.22v5.57
		c0,0.98-0.22,1.84-0.65,2.6c-0.43,0.76-1.05,1.34-1.87,1.77c-0.81,0.42-1.76,0.64-2.84,0.64c-0.99,0-1.9-0.19-2.71-0.57
		C95.36,140.51,94.72,139.98,94.25,139.3z"/>
	<path class="st1" d="M107.33,139.14c-0.44-0.75-0.66-1.61-0.66-2.59v-6.28c0-1.17,0.36-2.09,1.09-2.76s1.72-1.01,2.97-1.01
		c0.68,0,1.37,0.05,2.07,0.15c0.13,0.01,0.35,0.04,0.67,0.07c0.32,0.03,0.61,0.04,0.88,0.04c0.62,0,1.25-0.09,1.9-0.26l0.5,2.74
		c-0.62,0.2-1.22,0.3-1.81,0.3c-0.36,0-0.69-0.03-1-0.1c-0.31-0.06-0.67-0.15-1.09-0.27c-0.24-0.07-0.49-0.13-0.73-0.18
		c-0.24-0.05-0.47-0.08-0.67-0.08c-0.92,0-1.38,0.43-1.38,1.29v1.88c0.69-0.32,1.49-0.47,2.4-0.47c0.86,0,1.69,0.18,2.47,0.55
		c0.78,0.37,1.42,0.92,1.92,1.67c0.5,0.75,0.74,1.65,0.74,2.72c0,0.98-0.23,1.84-0.69,2.6c-0.46,0.75-1.1,1.34-1.93,1.75
		c-0.83,0.41-1.77,0.62-2.84,0.62c-1.12,0-2.09-0.21-2.91-0.63C108.39,140.47,107.77,139.89,107.33,139.14z M114.18,136.61
		c0-0.81-0.22-1.42-0.66-1.84c-0.44-0.42-0.99-0.64-1.65-0.64c-0.36,0-0.7,0.04-1.02,0.13c-0.32,0.09-0.59,0.19-0.79,0.3v2.16
		c0,0.83,0.17,1.44,0.52,1.82s0.86,0.57,1.55,0.57c0.65,0,1.15-0.22,1.51-0.66C114,138.02,114.18,137.4,114.18,136.61z"/>
	<path class="st1" d="M124.54,139.75c-0.53-0.57-0.79-1.26-0.79-2.05c0-0.31,0.05-0.64,0.15-1l3.59,0.51l-0.02,0.24
		c0,0.44,0.19,0.78,0.58,1.02c0.39,0.24,0.87,0.36,1.46,0.36c0.55,0,1.02-0.12,1.42-0.35c0.4-0.24,0.59-0.56,0.59-0.98
		c0-0.44-0.18-0.77-0.53-1.01c-0.36-0.23-0.85-0.35-1.48-0.35h-0.78v-2.57h1.48c0.31,0,0.55-0.07,0.74-0.22
		c0.19-0.15,0.28-0.34,0.28-0.58c0-0.23-0.1-0.42-0.29-0.58c-0.19-0.16-0.44-0.24-0.73-0.24h-1.51v-2.55h0.95
		c0.87,0,1.31-0.23,1.31-0.7c0-0.21-0.09-0.39-0.27-0.55c-0.18-0.15-0.45-0.32-0.83-0.5c-0.57-0.28-1.01-0.57-1.32-0.89
		c-0.32-0.32-0.47-0.76-0.47-1.32c0-0.08,0.02-0.25,0.05-0.51h3.91c-0.02,0.24,0.05,0.45,0.21,0.61c0.15,0.16,0.42,0.36,0.79,0.58
		c0.55,0.34,0.98,0.69,1.27,1.04c0.3,0.36,0.45,0.86,0.45,1.5c0,1.08-0.66,1.76-1.99,2.04v0.07c0.73,0.1,1.29,0.35,1.68,0.75
		c0.39,0.4,0.58,0.85,0.58,1.33c0,0.62-0.15,1.1-0.44,1.47c-0.29,0.36-0.78,0.62-1.48,0.76v0.07c0.74,0.21,1.31,0.55,1.69,1.03
		s0.57,1.02,0.57,1.64c0,0.71-0.24,1.35-0.73,1.91c-0.49,0.56-1.17,1-2.04,1.31c-0.87,0.32-1.89,0.47-3.03,0.47
		c-1.05,0-2.02-0.15-2.9-0.46C125.77,140.77,125.07,140.33,124.54,139.75z"/>
	<path class="st1" d="M140.65,133.87c0,2.42,0.37,4.86,1.12,7.34v0.09h-3.24c-0.39-1.06-0.7-2.25-0.94-3.56
		c-0.24-1.31-0.36-2.68-0.36-4.1c0-2.3,0.51-4.06,1.54-5.29s2.44-1.83,4.24-1.83c1.81,0,3.23,0.64,4.25,1.92
		c1.02,1.28,1.53,3.07,1.53,5.37c0,2.59-0.42,5.08-1.27,7.49h-3.24v-0.09c0.73-2.2,1.1-4.65,1.1-7.34c0-1.58-0.2-2.77-0.61-3.56
		s-1-1.19-1.76-1.19c-0.76,0-1.35,0.4-1.76,1.19C140.85,131.1,140.65,132.29,140.65,133.87z"/>
	<path class="st1" d="M159.12,139.27h-4.21c-0.85,0-1.58,0.09-2.2,0.28v-2.31l1.49-0.13v-0.06c-1.09-0.48-2.02-1.17-2.77-2.08
		c-0.75-0.91-1.13-2.05-1.13-3.4c0-1.08,0.19-2,0.57-2.75c0.38-0.76,0.9-1.32,1.56-1.69s1.41-0.56,2.24-0.56
		c0.7,0,1.31,0.14,1.81,0.42s0.89,0.64,1.17,1.09h0.11c0.26-0.46,0.62-0.83,1.09-1.1s1.04-0.41,1.72-0.41
		c0.66,0,1.22,0.14,1.68,0.41c0.46,0.27,0.81,0.64,1.06,1.1h0.11c0.26-0.45,0.64-0.81,1.14-1.09s1.06-0.42,1.68-0.42
		c1.41,0,2.53,0.44,3.35,1.32c0.83,0.88,1.24,2.06,1.24,3.56c0,0.86-0.09,1.62-0.26,2.28c-0.17,0.65-0.4,1.31-0.69,1.95l-3.06-0.8
		c0.4-1.14,0.6-2.24,0.6-3.32c0-1.7-0.49-2.55-1.47-2.55c-0.86,0-1.28,0.6-1.25,1.81l0.06,3.32h-3.06l0.06-3.54
		c0.01-0.52-0.09-0.91-0.3-1.19s-0.52-0.41-0.91-0.41c-0.4,0-0.72,0.14-0.94,0.42c-0.22,0.28-0.33,0.68-0.31,1.2l0.06,3.52h-3.06
		l0.06-3.34c0.01-0.58-0.08-1.02-0.29-1.33c-0.21-0.31-0.51-0.46-0.9-0.46c-0.43,0-0.79,0.21-1.08,0.63s-0.43,1.08-0.43,1.99
		c0,1.5,0.51,2.66,1.54,3.48c1.03,0.83,2.39,1.33,4.09,1.52c2.2,0.24,3.85,0.72,4.96,1.42s1.66,1.77,1.66,3.19h-3.26
		c-0.13-0.65-0.51-1.14-1.14-1.47C160.9,139.43,160.09,139.27,159.12,139.27z"/>
	<path class="st1" d="M182.61,133.98c0.33,0.49,0.58,0.96,0.75,1.4c0.17,0.45,0.26,1.04,0.26,1.79c0,0.82-0.23,1.56-0.69,2.22
		c-0.46,0.66-1.1,1.18-1.93,1.55c-0.83,0.37-1.77,0.56-2.82,0.56c-1.12,0-2.09-0.21-2.91-0.63s-1.45-1-1.89-1.75
		c-0.44-0.75-0.66-1.6-0.66-2.57v-9.82h3.37v9.97c0,0.82,0.19,1.42,0.57,1.81s0.89,0.58,1.52,0.58c0.62,0,1.11-0.18,1.48-0.53
		s0.55-0.81,0.55-1.37c0-0.4-0.07-0.74-0.21-1.02s-0.35-0.62-0.64-1c-0.33-0.42-0.58-0.81-0.76-1.19c-0.17-0.37-0.26-0.85-0.26-1.42
		c0-0.42,0.06-0.82,0.19-1.21l3.37,0.22c-0.03,0.14-0.04,0.29-0.04,0.43c0,0.4,0.06,0.74,0.18,1.01S182.37,133.62,182.61,133.98z"/>
	<path class="st1" d="M188.58,133.87c0,2.42,0.37,4.86,1.12,7.34v0.09h-3.24c-0.39-1.06-0.7-2.25-0.94-3.56
		c-0.24-1.31-0.36-2.68-0.36-4.1c0-2.3,0.51-4.06,1.54-5.29s2.44-1.83,4.24-1.83c1.81,0,3.23,0.64,4.25,1.92
		c1.02,1.28,1.53,3.07,1.53,5.37c0,2.59-0.42,5.08-1.27,7.49h-3.24v-0.09c0.73-2.2,1.1-4.65,1.1-7.34c0-1.58-0.2-2.77-0.61-3.56
		s-1-1.19-1.76-1.19c-0.76,0-1.35,0.4-1.76,1.19C188.79,131.1,188.58,132.29,188.58,133.87z"/>
</g>
<path class="st2" d="M113.31,106.65c0.44,0.65,0.96,1.26,1.54,1.82c1.29-0.32,2.49-0.96,3.47-1.87c2.59-2.41,3.24-6.27,1.6-9.39
	l-6.35-12.05l-7.22,11.55c-1.87,3-1.5,6.9,0.91,9.48c0.94,1.01,2.12,1.75,3.43,2.15c-0.03-0.07-0.07-0.15-0.1-0.22
	c-0.75-1.73-1.17-3.63-1.2-5.5c-0.03-1.83,0.31-3.69,0.98-5.36c0.65-1.63,1.64-3.16,2.87-4.41l0.21,0.17
	c-0.94,1.39-1.6,2.98-1.92,4.59c-0.31,1.58-0.31,3.23,0,4.79C111.84,103.92,112.46,105.39,113.31,106.65z"/>
<path class="st2" d="M140.32,103.65c0.69-1.14,1.08-2.44,1.13-3.78c0.13-3.53-2.14-6.73-5.51-7.77l-13.01-4.03l3.07,13.27
	c0.8,3.44,3.82,5.94,7.35,6.06c1.38,0.05,2.73-0.26,3.94-0.9c-0.08-0.03-0.15-0.06-0.22-0.09c-1.76-0.69-3.39-1.74-4.74-3.05
	c-1.32-1.28-2.39-2.83-3.1-4.48c-0.7-1.62-1.07-3.4-1.09-5.15l0.27-0.03c0.32,1.65,0.98,3.24,1.89,4.6
	c0.89,1.34,2.07,2.51,3.39,3.39c1.29,0.86,2.77,1.46,4.27,1.75C138.71,103.6,139.51,103.66,140.32,103.65z"/>
<path class="st2" d="M147.26,79.31c-1.49-3.2-4.96-5.02-8.44-4.42l-13.42,2.32l8.76,10.43c2.27,2.71,6.1,3.56,9.3,2.07
	c1.25-0.58,2.32-1.47,3.1-2.6c-0.08,0.01-0.16,0.02-0.24,0.03c-1.88,0.18-3.82-0.01-5.61-0.56c-1.75-0.54-3.41-1.43-4.8-2.59
	c-1.35-1.12-2.5-2.54-3.31-4.1l0.23-0.15c1.04,1.32,2.34,2.44,3.77,3.24c1.4,0.79,2.98,1.3,4.56,1.48c1.54,0.18,3.13,0.04,4.6-0.38
	c0.75-0.22,1.49-0.52,2.2-0.9C148.06,81.86,147.82,80.52,147.26,79.31z"/>
<path class="st2" d="M153.03,61.25c-0.05,0.06-0.1,0.13-0.15,0.19c-1.2,1.46-2.71,2.69-4.36,3.57c-1.62,0.86-3.43,1.4-5.22,1.56
	c-1.75,0.16-3.56-0.03-5.24-0.56l0.06-0.26c1.67,0.2,3.38,0.07,4.96-0.37c1.55-0.44,3.02-1.19,4.27-2.18
	c1.22-0.97,2.25-2.18,2.98-3.52c0.38-0.69,0.69-1.43,0.92-2.2c-0.87-1.01-1.99-1.78-3.24-2.24c-3.32-1.21-7.06-0.05-9.09,2.84
	l-7.85,11.13l13.57,1.19c3.52,0.31,6.82-1.8,8.04-5.11C153.14,63.99,153.27,62.6,153.03,61.25z"/>
<path class="st2" d="M138.96,50.19c-0.17-1.37-0.69-2.66-1.51-3.75c-0.02,0.08-0.03,0.16-0.05,0.24c-0.41,1.84-1.19,3.63-2.27,5.16
	c-1.05,1.5-2.42,2.8-3.94,3.76c-1.49,0.94-3.19,1.59-4.92,1.88l-0.07-0.26c1.58-0.58,3.05-1.47,4.25-2.59
	c1.18-1.09,2.15-2.43,2.81-3.88c0.64-1.41,1.01-2.96,1.06-4.49c0.03-0.78-0.03-1.58-0.18-2.37c-0.94-0.39-1.95-0.58-2.97-0.58
	c-0.31,0-0.63,0.02-0.94,0.06c-3.51,0.42-6.31,3.16-6.81,6.66l-1.94,13.48l12.63-5.1C137.39,57.07,139.38,53.69,138.96,50.19z"/>
<path class="st2" d="M118.58,33.87c-1.08-0.85-2.36-1.4-3.72-1.59c0.04,0.07,0.09,0.13,0.13,0.2c1.02,1.59,1.72,3.4,2.04,5.25
	c0.31,1.81,0.27,3.69-0.13,5.45c-0.39,1.72-1.13,3.38-2.15,4.81l-0.23-0.13c0.71-1.52,1.11-3.2,1.18-4.84
	c0.06-1.61-0.2-3.24-0.75-4.73c-0.54-1.46-1.38-2.81-2.43-3.92c-0.54-0.57-1.14-1.09-1.81-1.55c-1.23,0.51-2.31,1.34-3.13,2.39
	c-2.18,2.78-2.22,6.7-0.11,9.53l8.16,10.91l5.32-12.54C122.33,39.85,121.36,36.05,118.58,33.87z"/>
<path class="st2" d="M94.81,45.44c-0.74-0.27-1.52-0.46-2.31-0.56c-0.86,1.02-1.45,2.24-1.71,3.55c-0.68,3.47,1.06,6.98,4.23,8.54
	l12.22,6.01l-0.95-13.59c-0.25-3.52-2.84-6.46-6.31-7.14c-1.35-0.26-2.74-0.17-4.04,0.27c0.07,0.04,0.14,0.08,0.21,0.12
	c1.63,0.96,3.08,2.25,4.2,3.75c1.1,1.47,1.92,3.16,2.36,4.91c0.43,1.7,0.53,3.52,0.27,5.26l-0.27-0.01
	c-0.06-1.68-0.46-3.35-1.15-4.84c-0.67-1.46-1.65-2.8-2.82-3.88C97.61,46.78,96.24,45.95,94.81,45.44z"/>
<path class="st2" d="M85.07,70.51l12.89-4.39l-10.28-8.94c-2.67-2.32-6.58-2.56-9.51-0.59c-1.14,0.77-2.06,1.82-2.66,3.05
	c0.08-0.02,0.15-0.04,0.23-0.06c1.83-0.47,3.77-0.59,5.62-0.32c1.81,0.26,3.59,0.88,5.14,1.81c1.51,0.9,2.86,2.12,3.91,3.53
	l-0.2,0.18c-1.23-1.14-2.69-2.05-4.24-2.61c-1.51-0.56-3.14-0.81-4.74-0.75c-1.55,0.07-3.1,0.45-4.48,1.09
	c-0.71,0.33-1.39,0.75-2.03,1.24c0.11,1.33,0.56,2.61,1.3,3.72C78.01,70.4,81.72,71.65,85.07,70.51z"/>
<path class="st2" d="M92.85,86.13l9.49-9.77l-13.22-3.29c-3.43-0.85-7.02,0.71-8.74,3.79c-0.67,1.2-1.01,2.55-0.99,3.92
	c0.06-0.05,0.12-0.11,0.18-0.16c1.41-1.25,3.09-2.23,4.87-2.84c1.73-0.59,3.6-0.84,5.4-0.73c1.76,0.11,3.51,0.59,5.09,1.37
	l-0.1,0.25c-1.62-0.46-3.33-0.6-4.96-0.41c-1.6,0.19-3.17,0.7-4.56,1.49c-1.35,0.76-2.56,1.8-3.49,3.01
	c-0.48,0.62-0.9,1.3-1.25,2.03c0.7,1.13,1.68,2.07,2.85,2.72C86.51,89.23,90.39,88.67,92.85,86.13z"/>
<path class="st2" d="M102.66,99.78l-0.19-13.62l-11.68,7.02c-3.03,1.82-4.47,5.46-3.5,8.86c0.38,1.32,1.09,2.52,2.08,3.47
	c0-0.08,0.01-0.16,0.01-0.24c0.11-1.88,0.61-3.77,1.43-5.45c0.81-1.65,1.95-3.14,3.31-4.33c1.32-1.16,2.9-2.07,4.56-2.63l0.11,0.25
	c-1.47,0.82-2.78,1.93-3.79,3.22c-0.99,1.26-1.75,2.74-2.17,4.27c-0.42,1.5-0.53,3.09-0.34,4.6c0.1,0.78,0.28,1.56,0.55,2.32
	c1.3,0.31,2.66,0.27,3.94-0.09C100.37,106.46,102.71,103.32,102.66,99.78z"/>
<g>
	<path class="st1" d="M51.62,163.72c-2.91,0-5.13-0.74-6.65-2.21c-0.74-0.7-1.31-1.55-1.71-2.56s-0.59-2.11-0.59-3.29
		c0-1.8,0.4-3.34,1.19-4.64c0.79-1.29,1.9-2.29,3.31-2.97c1.42-0.69,3.03-1.03,4.84-1.03c0.97,0,1.86,0.08,2.66,0.23
		c0.8,0.15,1.43,0.34,1.88,0.57l-0.78,2.96c-1.08-0.47-2.35-0.7-3.81-0.7c-1.6,0-2.9,0.45-3.91,1.36s-1.51,2.22-1.51,3.93
		c0,1.67,0.47,2.98,1.42,3.93c0.95,0.95,2.19,1.43,3.73,1.43c0.89,0,1.5-0.08,1.82-0.24v-3.42h-2.52v-2.89h6.09v8.62
		c-0.71,0.24-1.56,0.46-2.54,0.64C53.57,163.63,52.59,163.72,51.62,163.72z"/>
	<path class="st1" d="M58.73,163.55l4.44-14.54h4.31L72,163.55h-3.54l-1.12-3.73h-4.16l-1.04,3.73H58.73z M65.34,151.9l-0.11-0.43
		h-0.04l-0.26,1.12c-0.19,0.83-0.32,1.4-0.41,1.68l-0.86,3.08h3.21l-0.91-3.08C65.82,153.79,65.61,153,65.34,151.9z"/>
	<path class="st1" d="M81.13,149.17c0.76,0.18,1.4,0.47,1.9,0.87c0.89,0.72,1.34,1.73,1.34,3.04c0,0.86-0.26,1.61-0.77,2.24
		c-0.51,0.63-1.11,1.08-1.8,1.34v0.06c0.49,0.2,0.88,0.53,1.19,0.98s0.55,1.03,0.75,1.74c0.16,0.53,0.28,0.99,0.37,1.38
		c0.4,1.51,0.68,2.42,0.82,2.72h-3.37c-0.23-0.39-0.57-1.52-1.01-3.39c-0.19-0.89-0.45-1.5-0.8-1.82c-0.35-0.32-0.86-0.49-1.55-0.51
		H77.2v5.72h-3.26v-14.35c1.24-0.2,2.7-0.3,4.38-0.3C79.43,148.9,80.37,148.99,81.13,149.17z M80.42,154.9
		c0.46-0.37,0.69-0.88,0.69-1.53c0-0.66-0.21-1.16-0.64-1.5s-1.02-0.51-1.78-0.53c-0.59,0-1.09,0.04-1.49,0.11v4.01h1.29
		C79.32,155.46,79.96,155.27,80.42,154.9z"/>
	<path class="st1" d="M94.66,149.28c0.95,0.25,1.78,0.64,2.48,1.18c0.78,0.58,1.38,1.32,1.81,2.23c0.43,0.91,0.65,2,0.65,3.25
		c0,1.32-0.22,2.48-0.65,3.46c-0.43,0.99-1.02,1.79-1.77,2.43c-1.51,1.25-3.75,1.88-6.71,1.88c-1.4,0-2.64-0.07-3.73-0.22v-14.28
		c1.25-0.2,2.73-0.3,4.44-0.3C92.55,148.9,93.71,149.03,94.66,149.28z M94.82,159.84c0.86-0.86,1.28-2.15,1.28-3.86
		c0-1.47-0.41-2.59-1.22-3.38c-0.81-0.78-1.93-1.18-3.35-1.18c-0.62,0-1.11,0.04-1.49,0.13v9.51c0.2,0.04,0.6,0.07,1.21,0.07
		C92.77,161.14,93.96,160.71,94.82,159.84z"/>
	<path class="st1" d="M105.05,160.86h5.98v2.7h-9.28v-14.54h8.98v2.7h-5.67v3.02h5.35v2.67h-5.35V160.86z"/>
	<path class="st1" d="M117.11,149.01l3.02,5.33c0.91,1.61,1.7,3.27,2.37,4.98h0.06c-0.19-1.67-0.28-3.69-0.28-6.06v-4.25h3.02v14.54
		h-3.45l-3.11-5.61c-1.02-1.84-1.86-3.55-2.52-5.14l-0.06,0.02c0.09,1.91,0.13,4.03,0.13,6.34v4.38h-3.02v-14.54H117.11z"/>
	<path class="st1" d="M141.24,153.48v-6.29h3.69v16.36h-3.69v-6.85h-6.09v6.85h-3.71v-16.36h3.71v6.29H141.24z"/>
	<path class="st1" d="M147.97,163.55v-14.54h3.3v14.54H147.97z"/>
	<path class="st1" d="M157.42,160.79h5.78v2.76h-9.08v-14.54h3.3V160.79z"/>
	<path class="st1" d="M168.45,160.79h5.78v2.76h-9.08v-14.54h3.3V160.79z"/>
	<path class="st1" d="M179.93,161.07c0.75,0,1.32-0.14,1.72-0.42c0.4-0.28,0.59-0.67,0.59-1.15c0-0.45-0.18-0.82-0.55-1.12
		c-0.37-0.3-1-0.61-1.89-0.93c-2.66-0.92-3.99-2.35-3.99-4.29c0-0.83,0.22-1.58,0.67-2.24c0.45-0.66,1.08-1.18,1.91-1.56
		c0.83-0.38,1.8-0.57,2.92-0.57c1.38,0,2.62,0.24,3.71,0.73l-0.73,2.65c-0.95-0.46-1.96-0.69-3.04-0.69c-0.68,0-1.2,0.13-1.56,0.4
		c-0.37,0.27-0.55,0.6-0.55,1c0,0.43,0.19,0.78,0.58,1.06s1.09,0.6,2.11,0.99c1.29,0.48,2.25,1.06,2.86,1.76
		c0.61,0.7,0.92,1.56,0.92,2.58c0,0.83-0.22,1.59-0.65,2.28c-0.43,0.68-1.09,1.23-1.97,1.63c-0.88,0.4-1.97,0.6-3.25,0.6
		c-0.79,0-1.56-0.09-2.32-0.26c-0.75-0.17-1.36-0.38-1.8-0.63l0.67-2.72c0.5,0.26,1.08,0.47,1.72,0.65S179.28,161.07,179.93,161.07z
		"/>
</g>
</svg>
